<svg xmlns="http://www.w3.org/2000/svg" xmlns:xlink="http://www.w3.org/1999/xlink" version="1.1" id="Layer_1" x="0px" y="0px" width="100px" height="100px" viewBox="0 0 100 100" enable-background="new 0 0 100 100" xml:space="preserve">
<g>
	<path d="M82.767,96.113H17.234c-7.36,0-13.347-5.987-13.347-13.347V17.234c0-7.36,5.987-13.347,13.347-13.347h65.533   c7.359,0,13.347,5.987,13.347,13.347v65.533C96.113,90.126,90.126,96.113,82.767,96.113z M17.234,9.887   c-4.051,0-7.347,3.296-7.347,7.347v65.533c0,4.051,3.296,7.347,7.347,7.347h65.533c4.051,0,7.347-3.296,7.347-7.347V17.234   c0-4.051-3.296-7.347-7.347-7.347H17.234z"/>
</g>
<path d="M62.909,50c0-0.633,0.515-1.146,1.147-1.146h6.178c-0.266-4.737-2.146-9.031-5.113-12.352l-4.37,4.37  c-0.447,0.448-1.173,0.448-1.622-0.001c-0.448-0.448-0.448-1.174,0-1.621l4.37-4.37c-3.32-2.967-7.614-4.848-12.352-5.114v6.178  c0,0.633-0.513,1.146-1.147,1.146c-0.633,0-1.146-0.514-1.146-1.146v-6.178c-4.737,0.265-9.031,2.146-12.352,5.113l4.371,4.371  c0.448,0.448,0.448,1.173,0,1.621s-1.174,0.449-1.622,0.001l-4.371-4.371c-2.967,3.321-4.848,7.615-5.113,12.352h6.178  c0.633,0,1.146,0.513,1.146,1.146c0,0.633-0.513,1.147-1.146,1.147h-6.178c0.266,4.737,2.146,9.031,5.113,12.352l4.371-4.371  c0.448-0.448,1.174-0.447,1.622,0c0.449,0.449,0.449,1.175,0,1.623l-4.371,4.37c3.321,2.967,7.615,4.848,12.352,5.113v-6.178  c0-0.634,0.514-1.147,1.146-1.147c0.635,0,1.147,0.514,1.147,1.147v6.178c4.736-0.266,9.03-2.146,12.351-5.113l-4.37-4.37  c-0.447-0.447-0.447-1.176,0.001-1.623c0.447-0.447,1.175-0.446,1.622,0l4.37,4.37c2.967-3.32,4.848-7.614,5.113-12.351h-6.178  C63.424,51.147,62.909,50.633,62.909,50z"/>
</svg>